<mxfile host="Electron" modified="2023-10-26T13:08:03.310Z" agent="Mozilla/5.0 (Windows NT 10.0; Win64; x64) AppleWebKit/537.36 (KHTML, like Gecko) draw.io/22.0.2 Chrome/114.0.5735.289 Electron/25.8.4 Safari/537.36" etag="oSOdz3nGlZ1RndkeeKME" version="22.0.2" type="device">
  <diagram name="Страница — 1" id="v_SJ0s716N3Q2d2xxM74">
    <mxGraphModel dx="1884" dy="1116" grid="1" gridSize="10" guides="1" tooltips="1" connect="1" arrows="1" fold="1" page="1" pageScale="1" pageWidth="1654" pageHeight="1169" math="0" shadow="0">
      <root>
        <mxCell id="0" />
        <mxCell id="1" parent="0" />
        <mxCell id="3xt8R_bdU9V1CwNVAT63-63" value="" style="rounded=0;whiteSpace=wrap;html=1;" parent="1" vertex="1">
          <mxGeometry x="30" y="280" width="1540" height="840" as="geometry" />
        </mxCell>
        <mxCell id="3xt8R_bdU9V1CwNVAT63-1" value="&lt;font style=&quot;font-size: 23px;&quot;&gt;Трехуровневая архитектура сервиса аренды самокатов &quot;Юрент&quot;&lt;/font&gt;" style="text;html=1;align=center;verticalAlign=middle;resizable=0;points=[];autosize=1;strokeColor=none;fillColor=none;" parent="1" vertex="1">
          <mxGeometry x="480" y="40" width="710" height="40" as="geometry" />
        </mxCell>
        <mxCell id="3xt8R_bdU9V1CwNVAT63-2" value="&lt;span style=&quot;font-size: 17px;&quot;&gt;Уровень &lt;br&gt;представления&lt;/span&gt;" style="text;html=1;align=center;verticalAlign=middle;resizable=0;points=[];autosize=1;strokeColor=none;fillColor=none;" parent="1" vertex="1">
          <mxGeometry x="50" y="340" width="140" height="50" as="geometry" />
        </mxCell>
        <mxCell id="3xt8R_bdU9V1CwNVAT63-31" style="edgeStyle=orthogonalEdgeStyle;rounded=0;orthogonalLoop=1;jettySize=auto;html=1;entryX=0.5;entryY=0;entryDx=0;entryDy=0;fillColor=#f8cecc;strokeColor=#b85450;" parent="1" source="3xt8R_bdU9V1CwNVAT63-3" target="3xt8R_bdU9V1CwNVAT63-6" edge="1">
          <mxGeometry relative="1" as="geometry">
            <Array as="points">
              <mxPoint x="330" y="380" />
            </Array>
          </mxGeometry>
        </mxCell>
        <mxCell id="3xt8R_bdU9V1CwNVAT63-32" style="edgeStyle=orthogonalEdgeStyle;rounded=0;orthogonalLoop=1;jettySize=auto;html=1;entryX=0.5;entryY=0;entryDx=0;entryDy=0;startArrow=none;startFill=0;fillColor=#f8cecc;strokeColor=#b85450;" parent="1" source="3xt8R_bdU9V1CwNVAT63-3" target="3xt8R_bdU9V1CwNVAT63-13" edge="1">
          <mxGeometry relative="1" as="geometry">
            <Array as="points">
              <mxPoint x="570" y="490" />
            </Array>
          </mxGeometry>
        </mxCell>
        <mxCell id="3xt8R_bdU9V1CwNVAT63-33" style="edgeStyle=orthogonalEdgeStyle;rounded=0;orthogonalLoop=1;jettySize=auto;html=1;entryX=0.5;entryY=0;entryDx=0;entryDy=0;fillColor=#f8cecc;strokeColor=#b85450;" parent="1" source="3xt8R_bdU9V1CwNVAT63-3" target="3xt8R_bdU9V1CwNVAT63-10" edge="1">
          <mxGeometry relative="1" as="geometry">
            <Array as="points">
              <mxPoint x="825" y="380" />
            </Array>
          </mxGeometry>
        </mxCell>
        <mxCell id="3xt8R_bdU9V1CwNVAT63-34" style="edgeStyle=orthogonalEdgeStyle;rounded=0;orthogonalLoop=1;jettySize=auto;html=1;exitX=0.75;exitY=1;exitDx=0;exitDy=0;entryX=0;entryY=0.5;entryDx=0;entryDy=0;startArrow=none;startFill=0;fillColor=#f8cecc;strokeColor=#b85450;" parent="1" source="3xt8R_bdU9V1CwNVAT63-3" target="3xt8R_bdU9V1CwNVAT63-7" edge="1">
          <mxGeometry relative="1" as="geometry">
            <Array as="points">
              <mxPoint x="600" y="410" />
              <mxPoint x="660" y="410" />
              <mxPoint x="660" y="640" />
            </Array>
          </mxGeometry>
        </mxCell>
        <mxCell id="3xt8R_bdU9V1CwNVAT63-35" style="edgeStyle=orthogonalEdgeStyle;rounded=0;orthogonalLoop=1;jettySize=auto;html=1;exitX=0.25;exitY=1;exitDx=0;exitDy=0;entryX=0.5;entryY=0;entryDx=0;entryDy=0;startArrow=none;startFill=0;fillColor=#f8cecc;strokeColor=#b85450;" parent="1" source="3xt8R_bdU9V1CwNVAT63-3" target="3xt8R_bdU9V1CwNVAT63-8" edge="1">
          <mxGeometry relative="1" as="geometry">
            <Array as="points">
              <mxPoint x="540" y="410" />
              <mxPoint x="470" y="410" />
            </Array>
          </mxGeometry>
        </mxCell>
        <mxCell id="3xt8R_bdU9V1CwNVAT63-74" style="edgeStyle=orthogonalEdgeStyle;rounded=0;orthogonalLoop=1;jettySize=auto;html=1;exitX=1;exitY=0.5;exitDx=0;exitDy=0;entryX=0.25;entryY=1;entryDx=0;entryDy=0;fillColor=#f8cecc;strokeColor=#b85450;" parent="1" source="3xt8R_bdU9V1CwNVAT63-3" target="3xt8R_bdU9V1CwNVAT63-11" edge="1">
          <mxGeometry relative="1" as="geometry">
            <Array as="points">
              <mxPoint x="940" y="360" />
              <mxPoint x="940" y="690" />
              <mxPoint x="1175" y="690" />
            </Array>
          </mxGeometry>
        </mxCell>
        <mxCell id="3xt8R_bdU9V1CwNVAT63-3" value="Модуль интерфейса&lt;br&gt;пользователя" style="rounded=0;whiteSpace=wrap;html=1;fillColor=#f8cecc;strokeColor=#b85450;" parent="1" vertex="1">
          <mxGeometry x="510" y="330" width="120" height="60" as="geometry" />
        </mxCell>
        <mxCell id="3xt8R_bdU9V1CwNVAT63-5" value="&lt;span style=&quot;font-size: 17px;&quot;&gt;Уровень &lt;br&gt;логики&lt;/span&gt;" style="text;html=1;align=center;verticalAlign=middle;resizable=0;points=[];autosize=1;strokeColor=none;fillColor=none;" parent="1" vertex="1">
          <mxGeometry x="70" y="550" width="90" height="50" as="geometry" />
        </mxCell>
        <mxCell id="3xt8R_bdU9V1CwNVAT63-73" style="edgeStyle=orthogonalEdgeStyle;rounded=0;orthogonalLoop=1;jettySize=auto;html=1;exitX=0.5;exitY=1;exitDx=0;exitDy=0;entryX=0.125;entryY=1;entryDx=0;entryDy=0;entryPerimeter=0;startArrow=classic;startFill=1;" parent="1" source="3xt8R_bdU9V1CwNVAT63-6" target="3xt8R_bdU9V1CwNVAT63-7" edge="1">
          <mxGeometry relative="1" as="geometry">
            <mxPoint x="780" y="680" as="targetPoint" />
            <Array as="points">
              <mxPoint x="330" y="710" />
              <mxPoint x="780" y="710" />
            </Array>
          </mxGeometry>
        </mxCell>
        <mxCell id="3xt8R_bdU9V1CwNVAT63-6" value="Модуль поиска самоката" style="rounded=0;whiteSpace=wrap;html=1;fillColor=#f5f5f5;fontColor=#333333;strokeColor=#666666;" parent="1" vertex="1">
          <mxGeometry x="270" y="500" width="120" height="60" as="geometry" />
        </mxCell>
        <mxCell id="3xt8R_bdU9V1CwNVAT63-39" style="edgeStyle=orthogonalEdgeStyle;rounded=0;orthogonalLoop=1;jettySize=auto;html=1;entryX=0;entryY=0.5;entryDx=0;entryDy=0;startArrow=classic;startFill=1;" parent="1" source="3xt8R_bdU9V1CwNVAT63-7" target="3xt8R_bdU9V1CwNVAT63-12" edge="1">
          <mxGeometry relative="1" as="geometry">
            <Array as="points">
              <mxPoint x="980" y="660" />
              <mxPoint x="980" y="530" />
            </Array>
          </mxGeometry>
        </mxCell>
        <mxCell id="3xt8R_bdU9V1CwNVAT63-40" style="edgeStyle=orthogonalEdgeStyle;rounded=0;orthogonalLoop=1;jettySize=auto;html=1;exitX=0.5;exitY=1;exitDx=0;exitDy=0;entryX=0.5;entryY=1;entryDx=0;entryDy=0;startArrow=classic;startFill=1;" parent="1" source="3xt8R_bdU9V1CwNVAT63-7" target="3xt8R_bdU9V1CwNVAT63-9" edge="1">
          <mxGeometry relative="1" as="geometry">
            <Array as="points">
              <mxPoint x="825" y="700" />
              <mxPoint x="1335" y="700" />
            </Array>
          </mxGeometry>
        </mxCell>
        <mxCell id="3xt8R_bdU9V1CwNVAT63-56" style="edgeStyle=orthogonalEdgeStyle;rounded=0;orthogonalLoop=1;jettySize=auto;html=1;exitX=0.25;exitY=1;exitDx=0;exitDy=0;entryX=0.25;entryY=0;entryDx=0;entryDy=0;fillColor=#d5e8d4;strokeColor=#82b366;startArrow=classic;startFill=1;" parent="1" source="3xt8R_bdU9V1CwNVAT63-7" target="3xt8R_bdU9V1CwNVAT63-14" edge="1">
          <mxGeometry relative="1" as="geometry" />
        </mxCell>
        <mxCell id="3xt8R_bdU9V1CwNVAT63-7" value="Моудль управления самокатами" style="rounded=0;whiteSpace=wrap;html=1;fillColor=#f5f5f5;fontColor=#333333;strokeColor=#666666;" parent="1" vertex="1">
          <mxGeometry x="765" y="610" width="120" height="60" as="geometry" />
        </mxCell>
        <mxCell id="3xt8R_bdU9V1CwNVAT63-45" style="edgeStyle=orthogonalEdgeStyle;rounded=0;orthogonalLoop=1;jettySize=auto;html=1;entryX=0.25;entryY=1;entryDx=0;entryDy=0;startArrow=classic;startFill=1;" parent="1" source="3xt8R_bdU9V1CwNVAT63-8" target="3xt8R_bdU9V1CwNVAT63-9" edge="1">
          <mxGeometry relative="1" as="geometry">
            <Array as="points">
              <mxPoint x="550" y="630" />
              <mxPoint x="550" y="580" />
              <mxPoint x="1305" y="580" />
            </Array>
          </mxGeometry>
        </mxCell>
        <mxCell id="3xt8R_bdU9V1CwNVAT63-53" style="edgeStyle=orthogonalEdgeStyle;rounded=0;orthogonalLoop=1;jettySize=auto;html=1;fillColor=#d5e8d4;strokeColor=#82b366;startArrow=classic;startFill=1;" parent="1" source="3xt8R_bdU9V1CwNVAT63-8" target="3xt8R_bdU9V1CwNVAT63-14" edge="1">
          <mxGeometry relative="1" as="geometry">
            <Array as="points">
              <mxPoint x="470" y="760" />
              <mxPoint x="780" y="760" />
            </Array>
          </mxGeometry>
        </mxCell>
        <mxCell id="3xt8R_bdU9V1CwNVAT63-8" value="Модуль управления подпиской" style="rounded=0;whiteSpace=wrap;html=1;fillColor=#f5f5f5;fontColor=#333333;strokeColor=#666666;" parent="1" vertex="1">
          <mxGeometry x="410" y="600" width="120" height="60" as="geometry" />
        </mxCell>
        <mxCell id="3xt8R_bdU9V1CwNVAT63-61" style="edgeStyle=orthogonalEdgeStyle;rounded=0;orthogonalLoop=1;jettySize=auto;html=1;startArrow=classic;startFill=1;" parent="1" source="3xt8R_bdU9V1CwNVAT63-9" target="3xt8R_bdU9V1CwNVAT63-62" edge="1">
          <mxGeometry relative="1" as="geometry">
            <mxPoint x="1530" y="1071.999969482422" as="targetPoint" />
          </mxGeometry>
        </mxCell>
        <mxCell id="3xt8R_bdU9V1CwNVAT63-9" value="Модуль управления платежами" style="rounded=0;whiteSpace=wrap;html=1;fillColor=#f5f5f5;fontColor=#333333;strokeColor=#666666;" parent="1" vertex="1">
          <mxGeometry x="1275" y="500" width="120" height="60" as="geometry" />
        </mxCell>
        <mxCell id="3xt8R_bdU9V1CwNVAT63-10" value="Модуль авторизации и регистрации" style="rounded=0;whiteSpace=wrap;html=1;fillColor=#f5f5f5;fontColor=#333333;strokeColor=#666666;" parent="1" vertex="1">
          <mxGeometry x="765" y="500" width="120" height="60" as="geometry" />
        </mxCell>
        <mxCell id="3xt8R_bdU9V1CwNVAT63-11" value="Модуль управления профилем" style="rounded=0;whiteSpace=wrap;html=1;fillColor=#f5f5f5;fontColor=#333333;strokeColor=#666666;" parent="1" vertex="1">
          <mxGeometry x="1145" y="600" width="120" height="60" as="geometry" />
        </mxCell>
        <mxCell id="3xt8R_bdU9V1CwNVAT63-38" style="edgeStyle=orthogonalEdgeStyle;rounded=0;orthogonalLoop=1;jettySize=auto;html=1;entryX=0;entryY=0.5;entryDx=0;entryDy=0;startArrow=classic;startFill=1;" parent="1" source="3xt8R_bdU9V1CwNVAT63-12" target="3xt8R_bdU9V1CwNVAT63-9" edge="1">
          <mxGeometry relative="1" as="geometry" />
        </mxCell>
        <mxCell id="3xt8R_bdU9V1CwNVAT63-59" style="edgeStyle=orthogonalEdgeStyle;rounded=0;orthogonalLoop=1;jettySize=auto;html=1;entryX=0.75;entryY=0;entryDx=0;entryDy=0;fillColor=#d5e8d4;strokeColor=#82b366;startArrow=classic;startFill=1;" parent="1" source="3xt8R_bdU9V1CwNVAT63-12" target="3xt8R_bdU9V1CwNVAT63-14" edge="1">
          <mxGeometry relative="1" as="geometry">
            <Array as="points">
              <mxPoint x="1080" y="750" />
              <mxPoint x="855" y="750" />
            </Array>
          </mxGeometry>
        </mxCell>
        <mxCell id="3xt8R_bdU9V1CwNVAT63-12" value="Модуль управления уведомлениями" style="rounded=0;whiteSpace=wrap;html=1;fillColor=#f5f5f5;strokeColor=#666666;fontColor=#333333;" parent="1" vertex="1">
          <mxGeometry x="1015" y="500" width="120" height="60" as="geometry" />
        </mxCell>
        <mxCell id="3xt8R_bdU9V1CwNVAT63-75" style="edgeStyle=orthogonalEdgeStyle;rounded=0;orthogonalLoop=1;jettySize=auto;html=1;exitX=0.75;exitY=0;exitDx=0;exitDy=0;entryX=0.5;entryY=0;entryDx=0;entryDy=0;startArrow=classic;startFill=1;" parent="1" source="3xt8R_bdU9V1CwNVAT63-13" target="3xt8R_bdU9V1CwNVAT63-12" edge="1">
          <mxGeometry relative="1" as="geometry">
            <Array as="points">
              <mxPoint x="600" y="470" />
              <mxPoint x="1075" y="470" />
            </Array>
          </mxGeometry>
        </mxCell>
        <mxCell id="3xt8R_bdU9V1CwNVAT63-13" value="Модуль технической поддержки" style="rounded=0;whiteSpace=wrap;html=1;fillColor=#f5f5f5;fontColor=#333333;strokeColor=#666666;" parent="1" vertex="1">
          <mxGeometry x="510" y="500" width="120" height="60" as="geometry" />
        </mxCell>
        <mxCell id="3xt8R_bdU9V1CwNVAT63-46" style="edgeStyle=orthogonalEdgeStyle;rounded=0;orthogonalLoop=1;jettySize=auto;html=1;fillColor=#d5e8d4;strokeColor=#82b366;startArrow=classic;startFill=1;" parent="1" source="3xt8R_bdU9V1CwNVAT63-14" target="3xt8R_bdU9V1CwNVAT63-20" edge="1">
          <mxGeometry relative="1" as="geometry" />
        </mxCell>
        <mxCell id="3xt8R_bdU9V1CwNVAT63-50" style="edgeStyle=orthogonalEdgeStyle;rounded=0;orthogonalLoop=1;jettySize=auto;html=1;exitX=1;exitY=0.75;exitDx=0;exitDy=0;fillColor=#d5e8d4;strokeColor=#82b366;startArrow=classic;startFill=1;" parent="1" source="3xt8R_bdU9V1CwNVAT63-14" target="3xt8R_bdU9V1CwNVAT63-24" edge="1">
          <mxGeometry relative="1" as="geometry" />
        </mxCell>
        <mxCell id="3xt8R_bdU9V1CwNVAT63-14" value="Модуль доступа к базам данных" style="rounded=0;whiteSpace=wrap;html=1;fillColor=#f5f5f5;strokeColor=#666666;fontColor=#333333;" parent="1" vertex="1">
          <mxGeometry x="765" y="790" width="120" height="62" as="geometry" />
        </mxCell>
        <mxCell id="3xt8R_bdU9V1CwNVAT63-17" value="&lt;font style=&quot;font-size: 17px;&quot;&gt;Уровень доступа &lt;br&gt;к данным&lt;/font&gt;" style="text;html=1;align=center;verticalAlign=middle;resizable=0;points=[];autosize=1;strokeColor=none;fillColor=none;" parent="1" vertex="1">
          <mxGeometry x="40" y="796" width="160" height="50" as="geometry" />
        </mxCell>
        <mxCell id="3xt8R_bdU9V1CwNVAT63-18" value="&lt;font style=&quot;font-size: 17px;&quot;&gt;Базы данных&lt;/font&gt;" style="text;html=1;align=center;verticalAlign=middle;resizable=0;points=[];autosize=1;strokeColor=none;fillColor=none;" parent="1" vertex="1">
          <mxGeometry x="50" y="1010" width="130" height="30" as="geometry" />
        </mxCell>
        <mxCell id="3xt8R_bdU9V1CwNVAT63-20" value="База данных&lt;br&gt;&amp;nbsp;пользователей" style="shape=cylinder3;whiteSpace=wrap;html=1;boundedLbl=1;backgroundOutline=1;size=15;fillColor=#d5e8d4;strokeColor=#82b366;" parent="1" vertex="1">
          <mxGeometry x="250" y="1000" width="160" height="85" as="geometry" />
        </mxCell>
        <mxCell id="3xt8R_bdU9V1CwNVAT63-21" value="База данных самокатов" style="shape=cylinder3;whiteSpace=wrap;html=1;boundedLbl=1;backgroundOutline=1;size=15;fillColor=#d5e8d4;strokeColor=#82b366;" parent="1" vertex="1">
          <mxGeometry x="455" y="1000" width="160" height="85" as="geometry" />
        </mxCell>
        <mxCell id="3xt8R_bdU9V1CwNVAT63-22" value="База данных аренды" style="shape=cylinder3;whiteSpace=wrap;html=1;boundedLbl=1;backgroundOutline=1;size=15;fillColor=#d5e8d4;strokeColor=#82b366;" parent="1" vertex="1">
          <mxGeometry x="665" y="1000" width="160" height="85" as="geometry" />
        </mxCell>
        <mxCell id="3xt8R_bdU9V1CwNVAT63-23" value="База данных резервации" style="shape=cylinder3;whiteSpace=wrap;html=1;boundedLbl=1;backgroundOutline=1;size=15;fillColor=#d5e8d4;strokeColor=#82b366;" parent="1" vertex="1">
          <mxGeometry x="865" y="1000" width="160" height="85" as="geometry" />
        </mxCell>
        <mxCell id="3xt8R_bdU9V1CwNVAT63-24" value="База данных подписок" style="shape=cylinder3;whiteSpace=wrap;html=1;boundedLbl=1;backgroundOutline=1;size=15;fillColor=#d5e8d4;strokeColor=#82b366;" parent="1" vertex="1">
          <mxGeometry x="1060" y="1000" width="160" height="85" as="geometry" />
        </mxCell>
        <mxCell id="3xt8R_bdU9V1CwNVAT63-25" value="База данных уведомлений" style="shape=cylinder3;whiteSpace=wrap;html=1;boundedLbl=1;backgroundOutline=1;size=15;fillColor=#d5e8d4;strokeColor=#82b366;" parent="1" vertex="1">
          <mxGeometry x="1255" y="1000" width="160" height="85" as="geometry" />
        </mxCell>
        <mxCell id="3xt8R_bdU9V1CwNVAT63-36" style="edgeStyle=orthogonalEdgeStyle;rounded=0;orthogonalLoop=1;jettySize=auto;html=1;startArrow=none;startFill=0;fillColor=#dae8fc;strokeColor=#6c8ebf;" parent="1" source="3xt8R_bdU9V1CwNVAT63-30" edge="1">
          <mxGeometry relative="1" as="geometry">
            <mxPoint x="885" y="640" as="targetPoint" />
            <Array as="points">
              <mxPoint x="950" y="360" />
              <mxPoint x="950" y="640" />
              <mxPoint x="885" y="640" />
            </Array>
          </mxGeometry>
        </mxCell>
        <mxCell id="3xt8R_bdU9V1CwNVAT63-37" style="edgeStyle=orthogonalEdgeStyle;rounded=0;orthogonalLoop=1;jettySize=auto;html=1;exitX=1;exitY=0.5;exitDx=0;exitDy=0;entryX=0.5;entryY=0;entryDx=0;entryDy=0;startArrow=none;startFill=0;fillColor=#dae8fc;strokeColor=#6c8ebf;" parent="1" source="3xt8R_bdU9V1CwNVAT63-30" target="3xt8R_bdU9V1CwNVAT63-11" edge="1">
          <mxGeometry relative="1" as="geometry" />
        </mxCell>
        <mxCell id="3xt8R_bdU9V1CwNVAT63-44" style="edgeStyle=orthogonalEdgeStyle;rounded=0;orthogonalLoop=1;jettySize=auto;html=1;exitX=0.984;exitY=0.182;exitDx=0;exitDy=0;entryX=0.5;entryY=1;entryDx=0;entryDy=0;startArrow=none;startFill=0;exitPerimeter=0;fillColor=#dae8fc;strokeColor=#6c8ebf;" parent="1" source="3xt8R_bdU9V1CwNVAT63-30" target="3xt8R_bdU9V1CwNVAT63-13" edge="1">
          <mxGeometry relative="1" as="geometry">
            <Array as="points">
              <mxPoint x="1135" y="341" />
              <mxPoint x="1410" y="340" />
              <mxPoint x="1410" y="720" />
              <mxPoint x="570" y="720" />
            </Array>
          </mxGeometry>
        </mxCell>
        <mxCell id="3xt8R_bdU9V1CwNVAT63-54" style="edgeStyle=orthogonalEdgeStyle;rounded=0;orthogonalLoop=1;jettySize=auto;html=1;exitX=0;exitY=0.75;exitDx=0;exitDy=0;startArrow=none;startFill=0;fillColor=#dae8fc;strokeColor=#6c8ebf;" parent="1" edge="1">
          <mxGeometry relative="1" as="geometry">
            <mxPoint x="1015" y="345" as="sourcePoint" />
            <mxPoint x="630" y="540" as="targetPoint" />
            <Array as="points">
              <mxPoint x="1010" y="345" />
              <mxPoint x="1010" y="346" />
              <mxPoint x="716" y="346" />
              <mxPoint x="716" y="540" />
            </Array>
          </mxGeometry>
        </mxCell>
        <mxCell id="3xt8R_bdU9V1CwNVAT63-30" value="Модуль интерфейса&lt;br&gt;администратора" style="rounded=0;whiteSpace=wrap;html=1;fillColor=#dae8fc;strokeColor=#6c8ebf;" parent="1" vertex="1">
          <mxGeometry x="1015" y="330" width="120" height="60" as="geometry" />
        </mxCell>
        <mxCell id="3xt8R_bdU9V1CwNVAT63-41" value="" style="endArrow=none;html=1;rounded=0;strokeWidth=3;" parent="1" edge="1">
          <mxGeometry width="50" height="50" relative="1" as="geometry">
            <mxPoint x="1570" y="440" as="sourcePoint" />
            <mxPoint x="30" y="440" as="targetPoint" />
          </mxGeometry>
        </mxCell>
        <mxCell id="3xt8R_bdU9V1CwNVAT63-42" value="" style="endArrow=none;html=1;rounded=0;strokeWidth=3;entryX=0.001;entryY=0.539;entryDx=0;entryDy=0;entryPerimeter=0;exitX=1.002;exitY=0.541;exitDx=0;exitDy=0;exitPerimeter=0;" parent="1" target="3xt8R_bdU9V1CwNVAT63-63" edge="1" source="3xt8R_bdU9V1CwNVAT63-63">
          <mxGeometry width="50" height="50" relative="1" as="geometry">
            <mxPoint x="1570" y="740" as="sourcePoint" />
            <mxPoint x="50" y="740" as="targetPoint" />
          </mxGeometry>
        </mxCell>
        <mxCell id="3xt8R_bdU9V1CwNVAT63-43" value="" style="endArrow=none;html=1;rounded=0;strokeWidth=3;entryX=0;entryY=0.75;entryDx=0;entryDy=0;exitX=1;exitY=0.75;exitDx=0;exitDy=0;" parent="1" source="3xt8R_bdU9V1CwNVAT63-63" target="3xt8R_bdU9V1CwNVAT63-63" edge="1">
          <mxGeometry width="50" height="50" relative="1" as="geometry">
            <mxPoint x="1570" y="920" as="sourcePoint" />
            <mxPoint x="40" y="920" as="targetPoint" />
          </mxGeometry>
        </mxCell>
        <mxCell id="3xt8R_bdU9V1CwNVAT63-47" style="edgeStyle=orthogonalEdgeStyle;rounded=0;orthogonalLoop=1;jettySize=auto;html=1;entryX=0.5;entryY=0;entryDx=0;entryDy=0;entryPerimeter=0;fillColor=#d5e8d4;strokeColor=#82b366;startArrow=classic;startFill=1;" parent="1" source="3xt8R_bdU9V1CwNVAT63-14" target="3xt8R_bdU9V1CwNVAT63-21" edge="1">
          <mxGeometry relative="1" as="geometry">
            <Array as="points">
              <mxPoint x="535" y="840" />
            </Array>
          </mxGeometry>
        </mxCell>
        <mxCell id="3xt8R_bdU9V1CwNVAT63-48" style="edgeStyle=orthogonalEdgeStyle;rounded=0;orthogonalLoop=1;jettySize=auto;html=1;entryX=0.5;entryY=0;entryDx=0;entryDy=0;entryPerimeter=0;fillColor=#d5e8d4;strokeColor=#82b366;startArrow=classic;startFill=1;" parent="1" source="3xt8R_bdU9V1CwNVAT63-14" target="3xt8R_bdU9V1CwNVAT63-22" edge="1">
          <mxGeometry relative="1" as="geometry">
            <Array as="points">
              <mxPoint x="780" y="950" />
              <mxPoint x="745" y="950" />
            </Array>
          </mxGeometry>
        </mxCell>
        <mxCell id="3xt8R_bdU9V1CwNVAT63-49" style="edgeStyle=orthogonalEdgeStyle;rounded=0;orthogonalLoop=1;jettySize=auto;html=1;entryX=0.409;entryY=0.04;entryDx=0;entryDy=0;entryPerimeter=0;fillColor=#d5e8d4;strokeColor=#82b366;startArrow=classic;startFill=1;" parent="1" target="3xt8R_bdU9V1CwNVAT63-23" edge="1">
          <mxGeometry relative="1" as="geometry">
            <mxPoint x="860" y="852" as="sourcePoint" />
            <Array as="points">
              <mxPoint x="860" y="960" />
              <mxPoint x="930" y="960" />
            </Array>
          </mxGeometry>
        </mxCell>
        <mxCell id="3xt8R_bdU9V1CwNVAT63-51" style="edgeStyle=orthogonalEdgeStyle;rounded=0;orthogonalLoop=1;jettySize=auto;html=1;exitX=1;exitY=0.5;exitDx=0;exitDy=0;entryX=0.5;entryY=0;entryDx=0;entryDy=0;entryPerimeter=0;fillColor=#d5e8d4;strokeColor=#82b366;startArrow=classic;startFill=1;" parent="1" source="3xt8R_bdU9V1CwNVAT63-14" target="3xt8R_bdU9V1CwNVAT63-25" edge="1">
          <mxGeometry relative="1" as="geometry" />
        </mxCell>
        <mxCell id="3xt8R_bdU9V1CwNVAT63-57" value="" style="endArrow=none;html=1;rounded=0;strokeWidth=3;exitX=0.11;exitY=1.004;exitDx=0;exitDy=0;exitPerimeter=0;" parent="1" source="3xt8R_bdU9V1CwNVAT63-63" edge="1">
          <mxGeometry width="50" height="50" relative="1" as="geometry">
            <mxPoint x="200" y="1090" as="sourcePoint" />
            <mxPoint x="200" y="280" as="targetPoint" />
          </mxGeometry>
        </mxCell>
        <mxCell id="3xt8R_bdU9V1CwNVAT63-58" style="edgeStyle=orthogonalEdgeStyle;rounded=0;orthogonalLoop=1;jettySize=auto;html=1;entryX=0.899;entryY=-0.016;entryDx=0;entryDy=0;entryPerimeter=0;fillColor=#d5e8d4;strokeColor=#82b366;startArrow=classic;startFill=1;" parent="1" source="3xt8R_bdU9V1CwNVAT63-10" target="3xt8R_bdU9V1CwNVAT63-14" edge="1">
          <mxGeometry relative="1" as="geometry">
            <Array as="points">
              <mxPoint x="920" y="530" />
              <mxPoint x="920" y="760" />
              <mxPoint x="873" y="760" />
            </Array>
          </mxGeometry>
        </mxCell>
        <mxCell id="3xt8R_bdU9V1CwNVAT63-60" style="edgeStyle=orthogonalEdgeStyle;rounded=0;orthogonalLoop=1;jettySize=auto;html=1;entryX=0.6;entryY=0.004;entryDx=0;entryDy=0;entryPerimeter=0;fillColor=#d5e8d4;strokeColor=#82b366;startArrow=classic;startFill=1;" parent="1" source="3xt8R_bdU9V1CwNVAT63-11" target="3xt8R_bdU9V1CwNVAT63-14" edge="1">
          <mxGeometry relative="1" as="geometry">
            <Array as="points">
              <mxPoint x="1205" y="770" />
              <mxPoint x="837" y="770" />
            </Array>
          </mxGeometry>
        </mxCell>
        <mxCell id="3xt8R_bdU9V1CwNVAT63-62" value="Внешние платежные системы" style="rounded=1;whiteSpace=wrap;html=1;" parent="1" vertex="1">
          <mxGeometry x="1440" y="1049.999969482422" width="120" height="60" as="geometry" />
        </mxCell>
        <mxCell id="3xt8R_bdU9V1CwNVAT63-71" style="edgeStyle=orthogonalEdgeStyle;rounded=0;orthogonalLoop=1;jettySize=auto;html=1;exitX=0.5;exitY=0.5;exitDx=0;exitDy=0;exitPerimeter=0;entryX=0.5;entryY=0;entryDx=0;entryDy=0;" parent="1" source="3xt8R_bdU9V1CwNVAT63-64" target="3xt8R_bdU9V1CwNVAT63-3" edge="1">
          <mxGeometry relative="1" as="geometry">
            <Array as="points">
              <mxPoint x="570" y="170" />
            </Array>
          </mxGeometry>
        </mxCell>
        <mxCell id="3xt8R_bdU9V1CwNVAT63-64" value="Пользователь" style="shape=umlActor;verticalLabelPosition=bottom;verticalAlign=top;html=1;outlineConnect=0;" parent="1" vertex="1">
          <mxGeometry x="480" y="120" width="50" height="100" as="geometry" />
        </mxCell>
        <mxCell id="3xt8R_bdU9V1CwNVAT63-72" style="edgeStyle=orthogonalEdgeStyle;rounded=0;orthogonalLoop=1;jettySize=auto;html=1;exitX=0.5;exitY=0.5;exitDx=0;exitDy=0;exitPerimeter=0;entryX=0.5;entryY=0;entryDx=0;entryDy=0;" parent="1" source="3xt8R_bdU9V1CwNVAT63-65" target="3xt8R_bdU9V1CwNVAT63-30" edge="1">
          <mxGeometry relative="1" as="geometry">
            <Array as="points">
              <mxPoint x="1075" y="160" />
            </Array>
          </mxGeometry>
        </mxCell>
        <mxCell id="3xt8R_bdU9V1CwNVAT63-65" value="Администратор" style="shape=umlActor;verticalLabelPosition=bottom;verticalAlign=top;html=1;outlineConnect=0;" parent="1" vertex="1">
          <mxGeometry x="1115" y="110" width="50" height="100" as="geometry" />
        </mxCell>
      </root>
    </mxGraphModel>
  </diagram>
</mxfile>
